<?xml version="1.0" standalone="no"?><!DOCTYPE svg PUBLIC "-//W3C//DTD SVG 1.1//EN" "http://www.w3.org/Graphics/SVG/1.1/DTD/svg11.dtd"><svg t="1675227667699" class="icon" viewBox="0 0 1024 1024" version="1.1" xmlns="http://www.w3.org/2000/svg" p-id="6619" xmlns:xlink="http://www.w3.org/1999/xlink" width="400" height="400"><path d="M42.66 128v853.34h768V128h-768zM0 85.34h853.34V1024H0V85.34zM170.66 0H1024v42.66H170.66z" p-id="6620"></path><path d="M981.34 0H1024v938.66h-42.66z" p-id="6621"></path><path d="M810.66 896h192v42.66h-192z m-640-896h42.661v106.66h-42.66zM128 896h42.66v21.34H128z m128 0h469.34v21.34H256zM21.34 789.34h789.339V832H21.339zM320.585 383.945l3.2 29.257-28.8-6.034a85.34 85.34 0 1 0-17.646 168.85l256-0.018a106.66 106.66 0 1 0-3.675-213.266l-16.713 0.548-4.553-16.091a96 96 0 1 0-187.831 36.754zM416 234.661a138.734 138.734 0 0 1 128.201 85.723 149.34 149.34 0 0 1-10.862 298.277h-256a128 128 0 1 1 0-256c5.852-71.589 65.664-128 138.661-128z" p-id="6622"></path><path d="M533.34 618.66V576a106.66 106.66 0 1 0-80.732-176.402l-32.256-27.904a149.34 149.34 0 1 1 113.006 246.985z" p-id="6623"></path></svg>