<?xml version="1.0" standalone="no"?><!DOCTYPE svg PUBLIC "-//W3C//DTD SVG 1.1//EN" "http://www.w3.org/Graphics/SVG/1.1/DTD/svg11.dtd"><svg t="1675227618831" class="icon" viewBox="0 0 1024 1024" version="1.1" xmlns="http://www.w3.org/2000/svg" p-id="6471" xmlns:xlink="http://www.w3.org/1999/xlink" width="400" height="400"><path d="M699.733333 793.941333a17.066667 17.066667 0 0 1-17.066666-17.066666 17.066667 17.066667 0 0 1 17.066666-17.066667 170.666667 170.666667 0 0 0 17.066667-341.333333 17.066667 17.066667 0 0 1-15.36-15.701334 189.781333 189.781333 0 0 0-378.88 0 17.066667 17.066667 0 0 1-15.36 15.701334 172.714667 172.714667 0 0 0-102.4 49.493333 170.666667 170.666667 0 0 0 119.466667 291.84 17.066667 17.066667 0 0 1 17.066666 17.066667 17.066667 17.066667 0 0 1-17.066666 17.066666A204.8 204.8 0 0 1 179.541333 443.733333a207.872 207.872 0 0 1 110.250667-57.344 223.914667 223.914667 0 0 1 443.733333 0 206.848 206.848 0 0 1 170.666667 202.069334 204.8 204.8 0 0 1-204.8 204.8z" fill="#808080" p-id="6472"></path><path d="M512 861.866667a17.066667 17.066667 0 0 1-17.066667-17.066667V614.4a17.066667 17.066667 0 0 1 34.133334 0v230.4a17.066667 17.066667 0 0 1-17.066667 17.066667z" fill="#808080" p-id="6473"></path><path d="M512 861.866667a16.042667 16.042667 0 0 1-11.946667-5.12 16.384 16.384 0 0 1 0-23.893334l76.8-76.8a16.725333 16.725333 0 0 1 23.893334 23.893334l-76.8 76.8a16.042667 16.042667 0 0 1-11.946667 5.12z" fill="#808080" p-id="6474"></path><path d="M512 861.866667a16.042667 16.042667 0 0 1-11.946667-5.12l-76.8-76.8a16.725333 16.725333 0 0 1 23.893334-23.893334l76.8 76.8a16.384 16.384 0 0 1 0 23.893334 16.042667 16.042667 0 0 1-11.946667 5.12z" fill="#808080" p-id="6475"></path></svg>