<?xml version="1.0" standalone="no"?><!DOCTYPE svg PUBLIC "-//W3C//DTD SVG 1.1//EN" "http://www.w3.org/Graphics/SVG/1.1/DTD/svg11.dtd"><svg t="1649734121996" class="icon" viewBox="0 0 1024 1024" version="1.1" xmlns="http://www.w3.org/2000/svg" p-id="1620" xmlns:xlink="http://www.w3.org/1999/xlink" width="200" height="200"><defs><style type="text/css">@font-face { font-family: feedback-iconfont; src: url("//at.alicdn.com/t/font_1031158_u69w8yhxdu.woff2?t=1630033759944") format("woff2"), url("//at.alicdn.com/t/font_1031158_u69w8yhxdu.woff?t=1630033759944") format("woff"), url("//at.alicdn.com/t/font_1031158_u69w8yhxdu.ttf?t=1630033759944") format("truetype"); }
</style></defs><path d="M702.868837 164.054326a29.767442 29.767442 0 0 1 41.31721 42.722232l-2.333768 2.262326-297.674419 257.976558a29.767442 29.767442 0 0 1-41.317209-42.722233l2.333768-2.262325 297.674418-257.976558z" fill="#fbe93c" p-id="1621"></path><path d="M669.124465 44.794047L186.891907 463.181395a29.767442 29.767442 0 0 0-1.80986 43.269954l346.850232 355.756651a29.767442 29.767442 0 0 0 44.293954-1.833674l407.861581-494.544373c37.078326-45.198884 34.173023-114.902326-6.548837-156.648186l-153.671442-157.624558c-41.055256-42.150698-110.258605-45.17507-154.74307-6.763162z m265.787535 205.966883l2.810047 3.095814c16.812651 20.432372 17.312744 53.509953 0.381023 74.132837l-386.738605 468.872931L249.713116 487.471628 708.084093 89.826233c20.59907-17.789023 54.03386-16.312558 73.132651 3.286325l153.695256 157.648372zM145.789023 585.227907l1.285954 10.716279 0.309581 3.024372c3.095814 32.982326 1.595535 69.727256-7.620465 103.54307-7.144186 26.314419-18.479628 48.389953-34.387349 65.250232a29.767442 29.767442 0 0 0 0 40.888559l143.955349 152.433116a29.767442 29.767442 0 0 0 43.293767 0c15.764837-16.669767 36.197209-28.481488 60.606512-35.887628 31.291535-9.525581 65.393116-11.097302 95.994047-7.882419l7.144186 0.857303 2.71479 0.404837c28.267163 5.12 46.675349-28.814884 26.909768-49.723535L197.155721 563.009488c-19.408372-20.575256-53.248-4.929488-51.342884 22.218419z m61.344744 75.037767l186.153675 197.084279-1.428837 0.142884c-18.646326 1.666977-37.483163 5.096186-55.962791 10.740093l-7.715721 2.500465a204.895256 204.895256 0 0 0-49.294884 24.314047l-6.001116 4.262698-106.496-112.75907 1.619349-2.309954c13.002419-19.527442 22.623256-41.769674 29.219721-66.131349 4.738977-17.384186 7.810977-35.101767 9.501767-52.676465l0.404837-5.167628z" fill="#fbe93c" p-id="1622"></path><path d="M147.098791 819.033302l39.197767 44.770233-66.726698 58.439442 59.963535 31.791628-27.909953 52.605023-136.263442-72.275349z" fill="#fbe93c" p-id="1623"></path></svg>