<?xml version="1.0" standalone="no"?><!DOCTYPE svg PUBLIC "-//W3C//DTD SVG 1.1//EN" "http://www.w3.org/Graphics/SVG/1.1/DTD/svg11.dtd"><svg t="1676182283620" class="icon" viewBox="0 0 1024 1024" version="1.1" xmlns="http://www.w3.org/2000/svg" p-id="7287" xmlns:xlink="http://www.w3.org/1999/xlink" width="400" height="400"><path d="M512 512m-310.3 0a310.3 310.3 0 1 0 620.6 0 310.3 310.3 0 1 0-620.6 0Z" fill="#F9C933" p-id="7288"></path><path d="M512 831.9c-176.4 0-319.9-143.5-319.9-319.9S335.6 192 512 192s320 143.5 320 320-143.6 319.9-320 319.9z m0-620.5c-165.8 0-300.6 134.9-300.6 300.6S346.2 812.6 512 812.6 812.6 677.8 812.6 512 677.8 211.4 512 211.4z" fill="#603813" p-id="7289"></path><path d="M649.3 622.2c-18.3 51.5-73 88.9-137.7 88.9-63.8 0-117.9-36.4-136.9-86.8" fill="#F9C933" p-id="7290"></path><path d="M511.6 720.8c-66.4 0-125-37.4-146-93.1-1.9-5 0.6-10.6 5.6-12.5 5-1.9 10.6 0.6 12.5 5.6 18.1 48.2 69.5 80.6 127.9 80.6 59.4 0 111.1-33.1 128.6-82.5 1.8-5 7.3-7.7 12.3-5.9 5 1.8 7.7 7.3 5.9 12.3-20.2 57.2-79.2 95.5-146.8 95.5z" fill="#603813" p-id="7291"></path><path d="M329 461.7c-1.2 0-2.4-0.2-3.6-0.7-5-2-7.4-7.6-5.4-12.6 1.1-2.8 27.8-68.3 70.7-69.9 26.6-1.2 51.6 22.3 74.4 69.2 2.3 4.8 0.3 10.6-4.4 12.9-4.8 2.4-10.6 0.3-12.9-4.4-18.6-38.2-37.8-58.4-55.5-58.4h-0.8c-25.3 0.9-47.1 42-53.4 57.7-1.6 3.9-5.3 6.2-9.1 6.2zM695 461.7c-3.6 0-7-2-8.7-5.4-18.7-38.2-37.8-58.4-55.5-58.4h-0.8c-25.2 0.9-47.1 42-53.5 57.7-2 5-7.6 7.3-12.6 5.4-5-2-7.4-7.6-5.4-12.6 1.1-2.8 27.8-68.3 70.7-69.9 26.3-1.2 51.6 22.3 74.5 69.2 2.3 4.8 0.3 10.6-4.4 12.9-1.4 0.8-2.9 1.1-4.3 1.1z" fill="#603813" p-id="7292"></path><path d="M269.7 535.7a51.1 25 0 1 0 102.2 0 51.1 25 0 1 0-102.2 0Z" fill="#ED9580" p-id="7293"></path><path d="M652.1 535.7a51.1 25 0 1 0 102.2 0 51.1 25 0 1 0-102.2 0Z" fill="#ED9580" p-id="7294"></path></svg>